<svg width="49" height="49" viewBox="0 0 49 49" fill="none" xmlns="http://www.w3.org/2000/svg">
<path d="M21.6703 7.14469C21.8003 7.01154 21.9557 6.90579 22.1273 6.83368C22.2989 6.76157 22.4832 6.72457 22.6693 6.72486C22.8554 6.72514 23.0396 6.76271 23.2109 6.83534C23.3823 6.90798 23.5374 7.01421 23.667 7.14776L39.5369 23.4311C39.8156 23.717 39.9716 24.1006 39.9716 24.4999C39.9716 24.8992 39.8156 25.2827 39.5369 25.5687L23.667 41.852C23.5372 41.9854 23.3819 42.0914 23.2105 42.1637C23.039 42.2361 22.8548 42.2734 22.6686 42.2734C22.4825 42.2734 22.2983 42.2361 22.1268 42.1637C21.9553 42.0914 21.8001 41.9854 21.6703 41.852C21.4031 41.5785 21.2536 41.2114 21.2536 40.8291C21.2536 40.4468 21.4031 40.0797 21.6703 39.8063L36.5938 24.4999L21.6703 9.18738C21.4041 8.91405 21.2551 8.54758 21.2551 8.16604C21.2551 7.7845 21.4041 7.41803 21.6703 7.14469ZM9.42026 7.14469C9.5503 7.01154 9.7057 6.90579 9.87729 6.83368C10.0489 6.76157 10.2332 6.72457 10.4193 6.72486C10.6054 6.72514 10.7896 6.76271 10.9609 6.83534C11.1323 6.90798 11.2874 7.01421 11.417 7.14776L27.2869 23.4311C27.5656 23.717 27.7216 24.1006 27.7216 24.4999C27.7216 24.8992 27.5656 25.2827 27.2869 25.5687L11.417 41.852C11.2872 41.9854 11.1319 42.0914 10.9605 42.1637C10.789 42.2361 10.6048 42.2734 10.4186 42.2734C10.2325 42.2734 10.0483 42.2361 9.87681 42.1637C9.70534 42.0914 9.5501 41.9854 9.42026 41.852C9.15314 41.5785 9.0036 41.2114 9.0036 40.8291C9.0036 40.4468 9.15314 40.0797 9.42026 39.8063L24.3438 24.4999L9.42026 9.18738C9.15406 8.91405 9.00509 8.54758 9.00509 8.16604C9.00509 7.7845 9.15406 7.41803 9.42026 7.14469Z" fill="#1E7CCF"/>
</svg>
