<svg width="13" height="13" viewBox="0 0 13 13" fill="none" xmlns="http://www.w3.org/2000/svg">
<path d="M10.5609 4.32739L6.5 8.28589L2.43913 4.32739C2.36657 4.25652 2.26917 4.21685 2.16775 4.21685C2.06633 4.21685 1.96893 4.25652 1.89638 4.32739C1.86125 4.36181 1.83334 4.40289 1.81428 4.44824C1.79523 4.49358 1.78542 4.54227 1.78542 4.59145C1.78542 4.64063 1.79523 4.68932 1.81428 4.73467C1.83334 4.78001 1.86125 4.82109 1.89638 4.85551L6.21644 9.06751C6.2923 9.14146 6.39406 9.18285 6.5 9.18285C6.60594 9.18285 6.7077 9.14146 6.78356 9.06751L11.1036 4.85633C11.139 4.82188 11.1671 4.78069 11.1863 4.7352C11.2055 4.68971 11.2154 4.64083 11.2154 4.59145C11.2154 4.54207 11.2055 4.49319 11.1863 4.4477C11.1671 4.40221 11.139 4.36102 11.1036 4.32658C11.0311 4.25571 10.9337 4.21603 10.8322 4.21603C10.7308 4.21603 10.6334 4.25571 10.5609 4.32658V4.32739Z" fill="#212121"/>
</svg>
