<svg width="54" height="54" viewBox="0 0 54 54" fill="none" xmlns="http://www.w3.org/2000/svg">
<circle r="26.5" transform="matrix(-1 0 0 1 27 27)" fill="white" stroke="#CED7E2"/>
<path d="M23.959 17.5544L32.9608 26.789C33.1189 26.9512 33.2074 27.1688 33.2074 27.3953C33.2074 27.6218 33.1189 27.8394 32.9608 28.0016L23.959 37.2396C23.8854 37.3153 23.7973 37.3754 23.7001 37.4164C23.6028 37.4575 23.4983 37.4786 23.3927 37.4786C23.2871 37.4786 23.1826 37.4575 23.0854 37.4164C22.9881 37.3754 22.9001 37.3153 22.8264 37.2396C22.6749 37.0845 22.5901 36.8763 22.5901 36.6594C22.5901 36.4426 22.6749 36.2344 22.8264 36.0792L31.2915 27.3953L22.8264 18.7131C22.6754 18.5581 22.5909 18.3502 22.5909 18.1338C22.5909 17.9174 22.6754 17.7095 22.8264 17.5544C22.9001 17.4788 22.9881 17.4187 23.0854 17.3776C23.1826 17.3366 23.2871 17.3154 23.3927 17.3154C23.4983 17.3154 23.6028 17.3366 23.7001 17.3776C23.7973 17.4187 23.8854 17.4788 23.959 17.5544Z" fill="#D0D0D0"/>
</svg>
