<svg width="76" height="16" viewBox="0 0 76 16" fill="none" xmlns="http://www.w3.org/2000/svg">
<g clip-path="url(#clip0_23_776)">
<path d="M3.612 15.4425C3.226 15.6405 2.788 15.2935 2.866 14.8505L3.696 10.1205L0.172996 6.76452C-0.156004 6.45052 0.0149962 5.87652 0.455996 5.81452L5.354 5.11852L7.538 0.791523C7.735 0.401523 8.268 0.401523 8.465 0.791523L10.649 5.11852L15.547 5.81452C15.988 5.87652 16.159 6.45052 15.829 6.76452L12.307 10.1205L13.137 14.8505C13.215 15.2935 12.777 15.6405 12.391 15.4425L8 13.1865L3.611 15.4425H3.612Z" fill="#FFD80B"/>
</g>
<g clip-path="url(#clip1_23_776)">
<path d="M18.612 15.4425C18.226 15.6405 17.788 15.2935 17.866 14.8505L18.696 10.1205L15.173 6.76452C14.844 6.45052 15.015 5.87652 15.456 5.81452L20.354 5.11852L22.538 0.791523C22.735 0.401523 23.268 0.401523 23.465 0.791523L25.649 5.11852L30.547 5.81452C30.988 5.87652 31.159 6.45052 30.829 6.76452L27.307 10.1205L28.137 14.8505C28.215 15.2935 27.777 15.6405 27.391 15.4425L23 13.1865L18.611 15.4425H18.612Z" fill="#FFD80B"/>
</g>
<g clip-path="url(#clip2_23_776)">
<path d="M33.612 15.4425C33.226 15.6405 32.788 15.2935 32.866 14.8505L33.696 10.1205L30.173 6.76452C29.844 6.45052 30.015 5.87652 30.456 5.81452L35.354 5.11852L37.538 0.791523C37.735 0.401523 38.268 0.401523 38.465 0.791523L40.649 5.11852L45.547 5.81452C45.988 5.87652 46.159 6.45052 45.829 6.76452L42.307 10.1205L43.137 14.8505C43.215 15.2935 42.777 15.6405 42.391 15.4425L38 13.1865L33.611 15.4425H33.612Z" fill="#FFD80B"/>
</g>
<g clip-path="url(#clip3_23_776)">
<path d="M48.612 15.4425C48.226 15.6405 47.788 15.2935 47.866 14.8505L48.696 10.1205L45.173 6.76452C44.844 6.45052 45.015 5.87652 45.456 5.81452L50.354 5.11852L52.538 0.791523C52.735 0.401523 53.268 0.401523 53.465 0.791523L55.649 5.11852L60.547 5.81452C60.988 5.87652 61.159 6.45052 60.829 6.76452L57.307 10.1205L58.137 14.8505C58.215 15.2935 57.777 15.6405 57.391 15.4425L53 13.1865L48.611 15.4425H48.612Z" fill="#FFD80B"/>
</g>
<g clip-path="url(#clip4_23_776)">
<path d="M63.612 15.4425C63.226 15.6405 62.788 15.2935 62.866 14.8505L63.696 10.1205L60.173 6.76452C59.844 6.45052 60.015 5.87652 60.456 5.81452L65.354 5.11852L67.538 0.791523C67.735 0.401523 68.268 0.401523 68.465 0.791523L70.649 5.11852L75.547 5.81452C75.988 5.87652 76.159 6.45052 75.829 6.76452L72.307 10.1205L73.137 14.8505C73.215 15.2935 72.777 15.6405 72.391 15.4425L68 13.1865L63.611 15.4425H63.612Z" fill="#FFD80B"/>
</g>
<defs>
<clipPath id="clip0_23_776">
<rect width="16" height="16" fill="white"/>
</clipPath>
<clipPath id="clip1_23_776">
<rect width="16" height="16" fill="white" transform="translate(15)"/>
</clipPath>
<clipPath id="clip2_23_776">
<rect width="16" height="16" fill="white" transform="translate(30)"/>
</clipPath>
<clipPath id="clip3_23_776">
<rect width="16" height="16" fill="white" transform="translate(45)"/>
</clipPath>
<clipPath id="clip4_23_776">
<rect width="16" height="16" fill="white" transform="translate(60)"/>
</clipPath>
</defs>
</svg>
